<?xml version="1.0" encoding="UTF-8"?>
<svg id="cartes" xmlns="http://www.w3.org/2000/svg" xmlns:xlink="http://www.w3.org/1999/xlink" version="1.1" viewBox="0 0 595.5 419.25">
  <!-- Generator: Adobe Illustrator 30.2.1, SVG Export Plug-In . SVG Version: 2.1.1 Build 1)  -->
  <defs>
    <style>
      .st0 {
        fill: none;
      }

      .st1 {
        fill: #eab94e;
      }

      .st2 {
        clip-path: url(#clippath);
      }
    </style>
    <clipPath id="clippath">
      <rect class="st0" x="392.4" y="97.82" width="119.17" height="125.17"/>
    </clipPath>
  </defs>
  <path class="st1" d="M124.2,232.38c-1.98,3.25-4.78,5.65-8.39,7.22,3.49,1.44,6.19,3.67,8.12,6.67,1.92,3.01,2.89,6.62,2.89,10.82v58.63h-15.69v-59.71c0-2.89-.72-5.14-2.16-6.76-1.44-1.62-3.43-2.43-5.95-2.43h-8.12v68.91h-15.33v-148.1h22.37c8.06,0,14.28,2.14,18.67,6.4,4.39,4.27,6.58,10.13,6.58,17.59v28.86c0,4.69-.99,8.66-2.98,11.91ZM94.89,181.51v51.41h7.22c2.89,0,5.17-.87,6.85-2.62,1.68-1.74,2.53-4.3,2.53-7.67v-30.85c0-3.37-.84-5.92-2.53-7.67-1.69-1.74-4.03-2.62-7.04-2.62h-7.04Z"/>
  <path class="st1" d="M173.17,301.47v14.25h-36.62v-148.1h35.9v14.07h-20.38v50.69h19.3v14.07h-19.3v55.02h21.11Z"/>
  <path class="st1" d="M185.62,309.86c-4.45-4.87-6.67-11.57-6.67-20.11v-96.15c0-8.42,2.22-15.09,6.67-20.02,4.45-4.93,10.58-7.4,18.4-7.4,5.05,0,9.44,1.08,13.17,3.25,3.73,2.16,6.61,5.29,8.66,9.38,2.04,4.09,3.07,8.9,3.07,14.43v23.81h-15.69v-23.63c0-3.97-.84-7.04-2.53-9.2-1.69-2.16-3.91-3.25-6.67-3.25-3.01,0-5.32,1.05-6.95,3.16-1.62,2.11-2.44,5.2-2.44,9.29v96.33c0,4.09.81,7.22,2.44,9.38,1.62,2.16,3.94,3.25,6.95,3.25s5.2-1.08,6.94-3.25c1.74-2.17,2.62-5.29,2.62-9.38v-35.54h-10.82v-14.25h26.16v50.33c0,5.41-1.02,10.16-3.07,14.25-2.05,4.09-4.93,7.22-8.66,9.38-3.73,2.16-8.12,3.25-13.17,3.25-7.82,0-13.95-2.44-18.4-7.31Z"/>
  <path class="st1" d="M269.5,273.15h-17.5l-4.33,42.57h-15.15l19.66-148.28h17.32l19.66,148.28h-15.33l-4.33-42.57ZM268.06,259.26l-6.85-67.29h-.9l-6.85,67.29h14.61Z"/>
  <path class="st1" d="M329.93,301.65v14.07h-34.09v-148.1h15.33v134.03h18.76Z"/>
  <g class="st2">
    <path class="st1" d="M472.81,140.3c2.04,6.88,8.05,8.05,8.05,8.05l21.05-21.05c-.3,21.05-14.36,26.98-21.73,24.45-7.37-2.5-7.37-11.45-7.37-11.45ZM424.09,202.05l44.23-43.66-40.94,44.42c-2.23,1.03-3.29-.76-3.29-.76ZM473.79,149.66l-5.17,4.68c-.27-.16-3.59-1.85-1.93,1.74l-49.48,44.53c-1.03,10.23,8.16,8.16,8.16,8.16l44.45-49.56.03.03s3.89,2.04,1.74-1.93l-.03-.03,4.65-5.17c2.53,1.85,8.54,4.9,16.43.35,9.98-5.77,14.66-24.37,9.9-28.92-4.76-4.57-15.91-.57-20.29,1.85-4.03,2.2-17.49,12.49-8.46,24.26Z"/>
    <path class="st1" d="M451.7,176.86l.16,38.71s-2.04.68-2.75-1.71l1.55-35.85-2.34,2.64-2.07,38.84c6.31,8.08,11.26,0,11.26,0l-2.04-46.87-3.78,4.24Z"/>
    <path class="st1" d="M448.98,117.8s-3.43,8.84-4.11,19.83c0,0-.82-21.98,7.54-36.67v16.84h-3.43ZM449.83,158.44c-.14.03-4.41,1.2-.27,2.56h.08l-1.03,15.21,2.26-2.12.73-12.95.05,12.21,3.67-3.43-.46-8.95c.6-.19,4.05-1.28-.16-2.67l-.22.19s.27-57.94,0-59.36c-.27-1.41-1.36-1.99-3.29,0-1.93,1.99-8.24,14.85-8.51,32.83-.27,17.98,7.43,26.55,7.43,26.55l-.27-.08Z"/>
    <path class="st1" d="M487.07,200.58l-31.42-28.15-1.47,1.66,26.74,24.7c1.09,2.18-.79,3.29-.79,3.29l-26.71-27.15-2.48,2.77,27.96,31.04c10.23,1.03,8.16-8.16,8.16-8.16Z"/>
    <path class="st1" d="M421.13,154.71l-1.74-1.74,11.32-11.32-11.81-12.51,14.53,13.06s-2.88,9.68-12.3,12.51ZM449.5,175.42l.27-4.19-13.17-13.38,13.25,12.24.19-2.72-12.51-11.21.03-.03s2.04-3.89-1.93-1.74l-.03.03-4.35-3.92c3.56-4.24,4.41-8.68,4.41-8.68l-27.17-24.37-1.82,1.82,21.38,21.76-.92.92-22.47-20.54-1.55,1.55,21.05,21.92-.95.95-21.92-21.08-1.55,1.55,20.51,22.47-.92.92-21.57-21.57-1.74,1.74,24.1,27.37c3.62-.9,6.42-2.48,8.57-4.27l3.92,4.35c-.16.27-1.85,3.59,1.74,1.93l14.8,16.43.38-.27Z"/>
    <polygon class="st1" points="435.9 181.35 444.74 173.27 436.39 164.15 392.4 164.15 396.57 172.34 392.4 181.35 435.9 181.35"/>
    <polygon class="st1" points="468.41 181.35 459.57 173.27 467.92 164.15 511.9 164.15 507.74 172.34 511.9 181.35 468.41 181.35"/>
  </g>
  <path class="st1" d="M354.74,175.2c1.59,1.68,2.39,4.03,2.39,7.05v32.53c0,1.97-.37,3.68-1.1,5.13-.73,1.45-1.77,2.55-3.11,3.3-1.34.76-2.94,1.13-4.78,1.13h-7.93v-51.66h7.93c2.81,0,5.01.84,6.61,2.52ZM351.72,181.93c0-1.38-.33-2.44-.98-3.18-.65-.73-1.52-1.1-2.61-1.1h-2.58v41.72h2.58c1.09,0,1.96-.37,2.61-1.1.65-.73.98-1.79.98-3.18v-33.16Z"/>
  <path class="st1" d="M373.49,219.37v4.97h-12.77v-51.66h12.52v4.91h-7.11v17.68h6.73v4.91h-6.73v19.19h7.36Z"/>
  <path class="st1" d="M344.55,317.4c-2.45-2.68-3.67-6.38-3.67-11.08v-54.17c0-3.02.55-5.65,1.66-7.9,1.11-2.25,2.7-3.99,4.78-5.24,2.08-1.24,4.53-1.86,7.35-1.86,4.16,0,7.42,1.29,9.77,3.88,2.35,2.58,3.52,6.13,3.52,10.62v13.59h-8.46v-13.49c0-2.01-.44-3.57-1.31-4.68-.87-1.11-2.05-1.66-3.52-1.66-1.61,0-2.85.57-3.73,1.71-.87,1.14-1.31,2.79-1.31,4.93v54.47c0,2.15.44,3.79,1.31,4.93.87,1.14,2.11,1.71,3.73,1.71,1.48,0,2.65-.55,3.52-1.66.87-1.11,1.31-2.67,1.31-4.68v-13.49h8.46v13.49c0,2.95-.52,5.52-1.56,7.7-1.04,2.18-2.57,3.88-4.58,5.08-2.01,1.21-4.4,1.81-7.15,1.81-4.3,0-7.67-1.34-10.12-4.03Z"/>
  <path class="st1" d="M390.81,296.86h-9.77l-2.42,23.76h-8.46l10.97-82.76h9.67l10.97,82.76h-8.56l-2.42-23.76ZM390,289.11l-3.83-37.55h-.5l-3.83,37.55h8.16Z"/>
  <path class="st1" d="M430.42,274.11c-1.11,1.81-2.67,3.16-4.68,4.03,1.95.81,3.46,2.05,4.53,3.73,1.07,1.68,1.61,3.69,1.61,6.04v32.72h-8.76v-33.33c0-1.61-.4-2.87-1.21-3.78-.81-.91-1.91-1.36-3.32-1.36h-4.53v38.46h-8.56v-82.66h12.48c4.5,0,7.97,1.19,10.42,3.57,2.45,2.38,3.67,5.66,3.67,9.82v16.11c0,2.62-.55,4.83-1.66,6.64ZM414.06,245.72v28.69h4.03c1.61,0,2.88-.49,3.83-1.46.94-.97,1.41-2.4,1.41-4.28v-17.22c0-1.88-.47-3.31-1.41-4.28-.94-.97-2.25-1.46-3.93-1.46h-3.93Z"/>
  <path class="st1" d="M443.46,245.82h-8.96v-7.85h26.58v7.85h-8.96v74.81h-8.66v-74.81Z"/>
  <path class="st1" d="M485.75,312.67v7.95h-20.44v-82.66h20.04v7.85h-11.38v28.29h10.77v7.85h-10.77v30.71h11.78Z"/>
  <path class="st1" d="M492.49,317.86c-2.42-2.38-3.62-5.89-3.62-10.52v-13.99h8.76v13.89c0,2.15.44,3.74,1.31,4.78.87,1.04,2.08,1.56,3.62,1.56,1.41,0,2.53-.5,3.37-1.51.84-1.01,1.26-2.38,1.26-4.13v-8.66c0-2.48-.35-4.7-1.06-6.65-.71-1.95-1.6-3.61-2.67-4.98-1.07-1.38-2.55-3.07-4.43-5.08-2.22-2.35-3.98-4.43-5.29-6.24-1.31-1.81-2.43-4.09-3.37-6.85-.94-2.75-1.41-6.01-1.41-9.77v-8.86c0-2.68.54-5.07,1.61-7.15,1.07-2.08,2.63-3.69,4.68-4.83,2.05-1.14,4.45-1.71,7.2-1.71,4.16,0,7.43,1.21,9.82,3.62,2.38,2.42,3.57,5.77,3.57,10.07v14.4h-8.76v-14.3c0-1.88-.42-3.32-1.26-4.33-.84-1.01-1.93-1.51-3.27-1.51-1.41,0-2.57.5-3.47,1.51s-1.36,2.38-1.36,4.13v8.56c0,2.48.35,4.68,1.06,6.59s1.61,3.59,2.72,5.03c1.11,1.44,2.57,3.11,4.38,4.98,2.21,2.42,3.98,4.53,5.29,6.34,1.31,1.81,2.43,4.09,3.37,6.85.94,2.75,1.41,6.01,1.41,9.77v9.16c0,2.69-.54,5.03-1.61,7.05-1.07,2.01-2.62,3.57-4.63,4.68s-4.36,1.66-7.05,1.66c-4.36,0-7.75-1.19-10.17-3.57Z"/>
</svg>